<svg xmlns="http://www.w3.org/2000/svg" xmlns:xlink="http://www.w3.org/1999/xlink" width="500" zoomAndPan="magnify" viewBox="0 0 375 374.999991" height="500" preserveAspectRatio="xMidYMid meet" version="1.0"><defs><g/></defs><g fill="#76ede2" fill-opacity="1"><g transform="translate(15.519474, 353.871083)"><g><path d="M 320.0625 -313.09375 C 299.320312 -288.03125 283.382812 -267.375 272.25 -251.125 L 243.234375 -208.421875 C 231.941406 -192.328125 221.34375 -178.785156 211.4375 -167.796875 L 262.5 -93.0625 C 282.769531 -63.507812 300.796875 -39.375 316.578125 -20.65625 C 320.753906 -15.550781 322.84375 -10.210938 322.84375 -4.640625 C 322.84375 1.859375 320.484375 7.503906 315.765625 12.296875 C 311.046875 17.097656 305.4375 19.5 298.9375 19.5 C 293.0625 19.5 287.566406 17.097656 282.453125 12.296875 C 271.003906 1.460938 259.09375 -13.234375 246.71875 -31.796875 L 215.609375 -79.609375 L 179.171875 -131.828125 L 99.34375 -39.453125 L 56.625 8.359375 C 51.519531 13.460938 45.875 16.015625 39.6875 16.015625 C 33.34375 16.015625 27.769531 13.613281 22.96875 8.8125 C 18.175781 4.019531 15.78125 -1.625 15.78125 -8.125 C 15.78125 -13.695312 17.789062 -18.957031 21.8125 -23.90625 L 63.59375 -70.5625 L 150.625 -171.515625 C 133.601562 -194.265625 115.5 -217.085938 96.3125 -239.984375 L 69.390625 -276.421875 C 58.566406 -290.960938 48.507812 -302.101562 39.21875 -309.84375 C 32.71875 -315.257812 29.46875 -321.523438 29.46875 -328.640625 C 29.46875 -334.984375 31.710938 -340.628906 36.203125 -345.578125 C 40.691406 -350.535156 46.265625 -353.015625 52.921875 -353.015625 C 66.066406 -353.015625 82.851562 -339.007812 103.28125 -311 C 109.625 -301.5625 119.296875 -288.179688 132.296875 -270.859375 C 149.929688 -249.804688 166.71875 -228.679688 182.65625 -207.484375 L 235.578125 -281.296875 C 269.921875 -329.109375 292.203125 -353.015625 302.421875 -353.015625 C 308.765625 -353.015625 314.332031 -350.613281 319.125 -345.8125 C 323.925781 -341.019531 326.328125 -335.375 326.328125 -328.875 C 326.328125 -323.457031 324.238281 -318.195312 320.0625 -313.09375 Z M 320.0625 -313.09375 "/></g></g></g></svg>